# Blender 4.4.3
# www.blender.org
mtllib island2.mtl
o Cube.016
v 1.959085 -5.271490 -7.044805
v -1.169149 -8.399724 -7.044805
v 1.959085 -5.271490 -3.964795
v -1.169149 -8.399724 -3.964795
v -9.289516 5.977111 -7.044805
v -12.417750 2.848877 -7.044805
v -9.289516 5.977111 -3.964795
v -12.417750 2.848877 -3.964795
v 5.395336 -17.842226 -1.164647
v 0.000000 -23.237560 -1.164647
v 5.395336 -17.842226 1.164647
v 0.000000 -23.237560 1.164647
v -0.000001 -12.446887 -1.164647
v -5.395337 -17.842224 -1.164647
v -0.000001 -12.446887 1.164647
v -5.395337 -17.842224 1.164647
v 4.761022 -15.858920 -4.597499
v 1.632787 -18.987156 -4.597499
v 4.761022 -15.858920 3.845310
v 1.632787 -18.987156 3.845310
v 1.632788 -12.730686 -4.597499
v -1.495447 -15.858920 -4.597499
v 1.632788 -12.730686 3.845310
v -1.495447 -15.858920 3.845310
v 7.627669 -10.783879 -4.105751
v 1.632788 -16.778761 -4.105751
v 7.627669 -10.783879 5.777661
v 1.632788 -16.778761 5.777661
v 1.632789 -4.788998 -4.105751
v -4.362093 -10.783879 -4.105751
v 1.632789 -4.788998 5.777661
v -4.362093 -10.783879 5.777661
v 7.295195 -7.827599 3.417367
v 1.632789 -13.490005 3.417367
v 7.295195 -7.827599 7.723311
v 1.632789 -13.490005 7.723311
v 1.632789 -2.165192 3.417367
v -4.029617 -7.827598 3.417367
v 1.632789 -2.165192 7.723311
v -4.029617 -7.827598 7.723311
v 8.675074 -13.108301 -2.262093
v 1.632788 -20.150587 -2.262093
v 8.675074 -13.108301 3.093171
v 1.632788 -20.150587 3.093171
v 1.632788 -6.066017 -2.262093
v -5.409497 -13.108302 -2.262093
v 1.632788 -6.066017 3.093171
v -5.409497 -13.108302 3.093171
v 6.145593 -11.392262 -6.799880
v 2.262997 -15.274858 -6.799880
v 6.145593 -11.392262 0.608109
v 2.262997 -15.274858 0.608109
v 2.262998 -7.509666 -6.799880
v -1.619599 -11.392262 -6.799880
v 2.262998 -7.509666 0.608109
v -1.619599 -11.392262 0.608109
v 7.510589 -4.078968 -8.282690
v 2.529324 -9.060233 -8.282690
v 7.510589 -4.078968 6.433051
v 2.529324 -9.060233 6.433051
v 2.529324 0.902298 -8.282690
v -2.451942 -4.078968 -8.282690
v 2.529324 0.902298 6.433051
v -2.451942 -4.078968 6.433051
v 5.644220 -7.491926 -5.789332
v 1.632789 -11.503358 -5.789332
v 5.644220 -7.491926 5.037144
v 1.632789 -11.503358 5.037144
v 1.632789 -3.480495 -5.789332
v -2.378643 -7.491926 -5.789332
v 1.632789 -3.480495 5.037144
v -2.378643 -7.491926 5.037144
v 8.968070 -7.827598 -3.247008
v 1.632789 -15.162879 -3.247008
v 8.968070 -7.827598 4.118562
v 1.632789 -15.162879 4.118562
v 1.632789 -0.492317 -3.247008
v -5.702492 -7.827599 -3.247008
v 1.632789 -0.492317 4.118562
v -5.702492 -7.827599 4.118562
v -1.189435 -6.435957 -6.481041
v -4.412842 -9.659364 -6.481041
v -1.189435 -6.435957 5.728852
v -4.412842 -9.659364 5.728852
v -11.768429 4.143037 -6.481041
v -14.991837 0.919630 -6.481041
v -11.768429 4.143037 5.728852
v -14.991837 0.919630 5.728852
v 3.885369 -6.442916 -7.259404
v -2.678299 -13.006585 -7.259404
v 3.885369 -6.442916 8.513121
v -2.678299 -13.006585 8.513121
v -2.678299 0.120752 -7.259404
v -9.241968 -6.442917 -7.259404
v -2.678299 0.120752 8.513121
v -9.241968 -6.442917 8.513121
v -0.278773 -9.849786 -5.084403
v -3.365728 -12.936740 -5.084403
v -0.278773 -9.849786 4.332213
v -3.365728 -12.936740 4.332213
v -8.224788 -1.903771 -5.084403
v -11.311743 -4.990726 -5.084403
v -8.224788 -1.903771 4.332213
v -11.311743 -4.990726 4.332213
v 1.166559 0.340441 3.450909
v -5.226710 -6.052828 3.450909
v 1.166559 0.340441 6.093439
v -5.226710 -6.052828 6.093439
v -4.221385 5.728384 3.450909
v -10.614653 -0.664885 3.450909
v -4.221385 5.728384 6.093439
v -10.614653 -0.664885 6.093439
v -1.137841 -9.807214 -3.878335
v -5.262934 -13.932307 -3.878335
v -1.137841 -9.807214 3.126146
v -5.262934 -13.932307 3.126146
v -5.262933 -5.682122 -3.878335
v -9.388025 -9.807216 -3.878335
v -5.262933 -5.682122 3.126146
v -9.388025 -9.807216 3.126146
v 4.556575 -2.955324 -7.747436
v 1.428342 -6.083557 -7.747436
v 4.556575 -2.955324 -4.667426
v 1.428342 -6.083557 -4.667426
v -3.062461 4.663712 -7.747436
v -6.190695 1.535479 -7.747436
v -3.062461 4.663712 -4.667426
v -6.190695 1.535479 -4.667426
v 3.026174 -5.081333 -8.457718
v -1.651985 -9.759492 -8.457718
v 3.026174 -5.081333 -3.472747
v -1.651985 -9.759492 -3.472747
v -1.651984 -0.403175 -8.457718
v -6.330143 -5.081334 -8.457718
v -1.651984 -0.403175 -3.472747
v -6.330143 -5.081334 -3.472747
v -1.596209 -0.879722 3.599744
v -6.422897 -5.706409 3.599744
v -1.596209 -0.879722 5.944604
v -6.422897 -5.706409 5.944604
v -7.857897 5.381966 3.599744
v -12.684585 0.555278 3.599744
v -7.857897 5.381966 5.944604
v -12.684585 0.555278 5.944604
v 9.882747 0.695878 -7.770670
v 1.693588 -7.493281 -7.770670
v 9.882747 0.695878 -4.159794
v 1.693588 -7.493281 -4.159794
v 6.325894 4.252730 -7.770670
v -1.863264 -3.936429 -7.770670
v 6.325894 4.252730 -4.159794
v -1.863264 -3.936429 -4.159794
v 5.302197 0.271522 -6.827842
v -1.386579 -6.417254 -6.827842
v 5.302197 0.271522 -3.878535
v -1.386579 -6.417254 -3.878535
v 2.397017 3.176702 -6.827842
v -4.291759 -3.512074 -6.827842
v 2.397017 3.176702 -3.878535
v -4.291759 -3.512074 -3.878535
v 9.092687 -3.515463 -6.751674
v 5.041369 -7.566780 -6.751674
v 9.092687 -3.515463 5.999486
v 5.041369 -7.566780 5.999486
v 5.041369 0.535855 -6.751674
v 0.990052 -3.515463 -6.751674
v 5.041369 0.535855 5.999486
v 0.990052 -3.515463 5.999486
v 4.492986 -0.486753 2.538728
v -2.195790 -7.175529 2.538728
v 4.492986 -0.486753 5.488034
v -2.195790 -7.175529 5.488034
v 1.587806 2.418427 2.538728
v -5.100970 -4.270349 2.538728
v 1.587806 2.418427 5.488034
v -5.100970 -4.270349 5.488034
v 11.529799 1.345431 2.879281
v 1.044035 -9.140333 2.879281
v 11.529799 1.345431 7.502807
v 1.044035 -9.140333 7.502807
v 6.975448 5.899783 2.879281
v -3.510316 -4.585981 2.879281
v 6.975448 5.899783 7.502807
v -3.510316 -4.585981 7.502807
v 11.145389 -1.289987 -5.156799
v 8.552247 -3.883129 -5.156799
v 11.145389 -1.289987 4.404611
v 8.552247 -3.883129 4.404611
v 8.552247 1.303154 -5.156799
v 5.959105 -1.289988 -5.156799
v 8.552247 1.303154 4.404611
v 5.959105 -1.289988 4.404611
vn 0.7071 0.7071 -0.0000
vn -0.0000 -0.0000 1.0000
vn -0.7071 0.7071 -0.0000
vn -0.7071 -0.7071 -0.0000
vn 0.7071 -0.7071 -0.0000
vn -0.0000 -0.0000 -1.0000
vt 0.625000 0.500000
vt 0.875000 0.500000
vt 0.875000 0.750000
vt 0.625000 0.750000
vt 0.375000 0.750000
vt 0.625000 1.000000
vt 0.375000 1.000000
vt 0.375000 0.000000
vt 0.625000 0.000000
vt 0.625000 0.250000
vt 0.375000 0.250000
vt 0.125000 0.500000
vt 0.375000 0.500000
vt 0.125000 0.750000
s 0
usemtl Material.016
f 1/1/1 5/2/1 7/3/1 3/4/1
f 4/5/2 3/4/2 7/6/2 8/7/2
f 8/8/3 7/9/3 5/10/3 6/11/3
f 6/12/4 2/13/4 4/5/4 8/14/4
f 2/13/5 1/1/5 3/4/5 4/5/5
f 6/11/6 5/10/6 1/1/6 2/13/6
usemtl Material
f 9/1/1 13/2/1 15/3/1 11/4/1
f 12/5/2 11/4/2 15/6/2 16/7/2
f 16/8/3 15/9/3 13/10/3 14/11/3
f 14/12/4 10/13/4 12/5/4 16/14/4
f 10/13/5 9/1/5 11/4/5 12/5/5
f 14/11/6 13/10/6 9/1/6 10/13/6
usemtl Material.002
f 17/1/1 21/2/1 23/3/1 19/4/1
f 20/5/2 19/4/2 23/6/2 24/7/2
f 24/8/3 23/9/3 21/10/3 22/11/3
f 22/12/4 18/13/4 20/5/4 24/14/4
f 18/13/5 17/1/5 19/4/5 20/5/5
f 22/11/6 21/10/6 17/1/6 18/13/6
usemtl Material.003
f 25/1/1 29/2/1 31/3/1 27/4/1
f 28/5/2 27/4/2 31/6/2 32/7/2
f 32/8/3 31/9/3 29/10/3 30/11/3
f 30/12/4 26/13/4 28/5/4 32/14/4
f 26/13/5 25/1/5 27/4/5 28/5/5
f 30/11/6 29/10/6 25/1/6 26/13/6
usemtl Material.004
f 33/1/1 37/2/1 39/3/1 35/4/1
f 36/5/2 35/4/2 39/6/2 40/7/2
f 40/8/3 39/9/3 37/10/3 38/11/3
f 38/12/4 34/13/4 36/5/4 40/14/4
f 34/13/5 33/1/5 35/4/5 36/5/5
f 38/11/6 37/10/6 33/1/6 34/13/6
usemtl Material.005
f 41/1/1 45/2/1 47/3/1 43/4/1
f 44/5/2 43/4/2 47/6/2 48/7/2
f 48/8/3 47/9/3 45/10/3 46/11/3
f 46/12/4 42/13/4 44/5/4 48/14/4
f 42/13/5 41/1/5 43/4/5 44/5/5
f 46/11/6 45/10/6 41/1/6 42/13/6
usemtl Material.007
f 49/1/1 53/2/1 55/3/1 51/4/1
f 52/5/2 51/4/2 55/6/2 56/7/2
f 56/8/3 55/9/3 53/10/3 54/11/3
f 54/12/4 50/13/4 52/5/4 56/14/4
f 50/13/5 49/1/5 51/4/5 52/5/5
f 54/11/6 53/10/6 49/1/6 50/13/6
usemtl Material.008
f 57/1/1 61/2/1 63/3/1 59/4/1
f 60/5/2 59/4/2 63/6/2 64/7/2
f 64/8/3 63/9/3 61/10/3 62/11/3
f 62/12/4 58/13/4 60/5/4 64/14/4
f 58/13/5 57/1/5 59/4/5 60/5/5
f 62/11/6 61/10/6 57/1/6 58/13/6
usemtl Material.009
f 65/1/1 69/2/1 71/3/1 67/4/1
f 68/5/2 67/4/2 71/6/2 72/7/2
f 72/8/3 71/9/3 69/10/3 70/11/3
f 70/12/4 66/13/4 68/5/4 72/14/4
f 66/13/5 65/1/5 67/4/5 68/5/5
f 70/11/6 69/10/6 65/1/6 66/13/6
usemtl Material.010
f 73/1/1 77/2/1 79/3/1 75/4/1
f 76/5/2 75/4/2 79/6/2 80/7/2
f 80/8/3 79/9/3 77/10/3 78/11/3
f 78/12/4 74/13/4 76/5/4 80/14/4
f 74/13/5 73/1/5 75/4/5 76/5/5
f 78/11/6 77/10/6 73/1/6 74/13/6
usemtl Material.011
f 81/1/1 85/2/1 87/3/1 83/4/1
f 84/5/2 83/4/2 87/6/2 88/7/2
f 88/8/3 87/9/3 85/10/3 86/11/3
f 86/12/4 82/13/4 84/5/4 88/14/4
f 82/13/5 81/1/5 83/4/5 84/5/5
f 86/11/6 85/10/6 81/1/6 82/13/6
usemtl Material.012
f 89/1/1 93/2/1 95/3/1 91/4/1
f 92/5/2 91/4/2 95/6/2 96/7/2
f 96/8/3 95/9/3 93/10/3 94/11/3
f 94/12/4 90/13/4 92/5/4 96/14/4
f 90/13/5 89/1/5 91/4/5 92/5/5
f 94/11/6 93/10/6 89/1/6 90/13/6
usemtl Material.013
f 97/1/1 101/2/1 103/3/1 99/4/1
f 100/5/2 99/4/2 103/6/2 104/7/2
f 104/8/3 103/9/3 101/10/3 102/11/3
f 102/12/4 98/13/4 100/5/4 104/14/4
f 98/13/5 97/1/5 99/4/5 100/5/5
f 102/11/6 101/10/6 97/1/6 98/13/6
usemtl Material.014
f 105/1/1 109/2/1 111/3/1 107/4/1
f 108/5/2 107/4/2 111/6/2 112/7/2
f 112/8/3 111/9/3 109/10/3 110/11/3
f 110/12/4 106/13/4 108/5/4 112/14/4
f 106/13/5 105/1/5 107/4/5 108/5/5
f 110/11/6 109/10/6 105/1/6 106/13/6
usemtl Material.015
f 113/1/1 117/2/1 119/3/1 115/4/1
f 116/5/2 115/4/2 119/6/2 120/7/2
f 120/8/3 119/9/3 117/10/3 118/11/3
f 118/12/4 114/13/4 116/5/4 120/14/4
f 114/13/5 113/1/5 115/4/5 116/5/5
f 118/11/6 117/10/6 113/1/6 114/13/6
usemtl Material.017
f 121/1/1 125/2/1 127/3/1 123/4/1
f 124/5/2 123/4/2 127/6/2 128/7/2
f 128/8/3 127/9/3 125/10/3 126/11/3
f 126/12/4 122/13/4 124/5/4 128/14/4
f 122/13/5 121/1/5 123/4/5 124/5/5
f 126/11/6 125/10/6 121/1/6 122/13/6
usemtl Material.018
f 129/1/1 133/2/1 135/3/1 131/4/1
f 132/5/2 131/4/2 135/6/2 136/7/2
f 136/8/3 135/9/3 133/10/3 134/11/3
f 134/12/4 130/13/4 132/5/4 136/14/4
f 130/13/5 129/1/5 131/4/5 132/5/5
f 134/11/6 133/10/6 129/1/6 130/13/6
usemtl Material.019
f 137/1/1 141/2/1 143/3/1 139/4/1
f 140/5/2 139/4/2 143/6/2 144/7/2
f 144/8/3 143/9/3 141/10/3 142/11/3
f 142/12/4 138/13/4 140/5/4 144/14/4
f 138/13/5 137/1/5 139/4/5 140/5/5
f 142/11/6 141/10/6 137/1/6 138/13/6
usemtl Material.020
f 145/1/1 149/2/1 151/3/1 147/4/1
f 148/5/2 147/4/2 151/6/2 152/7/2
f 152/8/3 151/9/3 149/10/3 150/11/3
f 150/12/4 146/13/4 148/5/4 152/14/4
f 146/13/5 145/1/5 147/4/5 148/5/5
f 150/11/6 149/10/6 145/1/6 146/13/6
usemtl Material.021
f 153/1/1 157/2/1 159/3/1 155/4/1
f 156/5/2 155/4/2 159/6/2 160/7/2
f 160/8/3 159/9/3 157/10/3 158/11/3
f 158/12/4 154/13/4 156/5/4 160/14/4
f 154/13/5 153/1/5 155/4/5 156/5/5
f 158/11/6 157/10/6 153/1/6 154/13/6
usemtl Material.022
f 161/1/1 165/2/1 167/3/1 163/4/1
f 164/5/2 163/4/2 167/6/2 168/7/2
f 168/8/3 167/9/3 165/10/3 166/11/3
f 166/12/4 162/13/4 164/5/4 168/14/4
f 162/13/5 161/1/5 163/4/5 164/5/5
f 166/11/6 165/10/6 161/1/6 162/13/6
usemtl Material.023
f 169/1/1 173/2/1 175/3/1 171/4/1
f 172/5/2 171/4/2 175/6/2 176/7/2
f 176/8/3 175/9/3 173/10/3 174/11/3
f 174/12/4 170/13/4 172/5/4 176/14/4
f 170/13/5 169/1/5 171/4/5 172/5/5
f 174/11/6 173/10/6 169/1/6 170/13/6
usemtl Material.024
f 177/1/1 181/2/1 183/3/1 179/4/1
f 180/5/2 179/4/2 183/6/2 184/7/2
f 184/8/3 183/9/3 181/10/3 182/11/3
f 182/12/4 178/13/4 180/5/4 184/14/4
f 178/13/5 177/1/5 179/4/5 180/5/5
f 182/11/6 181/10/6 177/1/6 178/13/6
usemtl Material.025
f 185/1/1 189/2/1 191/3/1 187/4/1
f 188/5/2 187/4/2 191/6/2 192/7/2
f 192/8/3 191/9/3 189/10/3 190/11/3
f 190/12/4 186/13/4 188/5/4 192/14/4
f 186/13/5 185/1/5 187/4/5 188/5/5
f 190/11/6 189/10/6 185/1/6 186/13/6
