# Blender 4.4.3
# www.blender.org
mtllib ladder1.mtl
o Cube.017
v 2.314085 25.034515 -3.106790
v 2.314085 20.641853 -3.106790
v 2.314085 25.034515 8.606647
v 2.314085 20.641853 8.606647
v -3.023227 25.034515 -3.106790
v -3.023227 20.641853 -3.106790
v -3.023227 25.034515 8.606647
v -3.023227 20.641853 8.606647
v 2.634668 1.376410 -5.198740
v 2.634668 -0.519691 -5.198740
v 2.634668 1.376410 4.277452
v 2.634668 -0.519691 4.277452
v -1.919455 1.376410 -5.198740
v -1.919455 -0.519691 -5.198740
v -1.919455 1.376410 4.277452
v -1.919455 -0.519691 4.277452
v 2.401833 3.000000 -4.755671
v 2.401833 0.999998 -4.755671
v 2.401833 3.000000 5.239773
v 2.401833 0.999998 5.239773
v -2.401833 3.000000 -4.755671
v -2.401833 0.999998 -4.755671
v -2.401833 3.000000 5.239773
v -2.401833 0.999998 5.239773
v 2.108561 4.511757 3.646671
v 2.108561 -0.447456 3.646671
v 2.108561 4.511757 7.029299
v 2.108561 -0.447456 7.029299
v -2.763900 4.511757 3.646671
v -2.763900 -0.447456 3.646671
v -2.763900 4.511757 7.029299
v -2.763900 -0.447456 7.029299
v 3.400328 8.155790 -2.899903
v 3.400328 2.509520 -2.899903
v 3.400328 8.155790 6.541892
v 3.400328 2.509520 6.541892
v -2.147173 8.155790 -2.899903
v -2.147173 2.509520 -2.899903
v -2.147173 8.155790 6.541892
v -2.147173 2.509520 6.541892
v 2.158824 7.929656 -4.378719
v 2.158824 2.735653 -4.378719
v 2.158824 7.929656 1.097495
v 2.158824 2.735653 1.097495
v -3.178488 7.929656 -4.378719
v -3.178488 2.735653 -4.378719
v -3.178488 7.929656 1.097495
v -3.178488 2.735653 1.097495
v 2.108561 4.511757 3.646671
v 2.108561 -0.447456 3.646671
v 2.108561 4.511757 7.029299
v 2.108561 -0.447456 7.029299
v -2.763900 4.511757 3.646671
v -2.763900 -0.447456 3.646671
v -2.763900 4.511757 7.029299
v -2.763900 -0.447456 7.029299
v 2.581360 11.965549 -5.129230
v 2.581360 6.034449 -5.129230
v 2.581360 11.965549 5.613332
v 2.581360 6.034449 5.613332
v -2.581360 11.965549 -5.129230
v -2.581360 6.034449 -5.129230
v -2.581360 11.965549 5.613332
v -2.581360 6.034449 5.613332
v 2.108561 14.670731 -3.419913
v 2.108561 8.346548 -3.419913
v 2.108561 14.670731 -0.037286
v 2.108561 8.346548 -0.037286
v -2.763900 14.670731 -3.419913
v -2.763900 8.346548 -3.419913
v -2.763900 14.670731 -0.037286
v -2.763900 8.346548 -0.037286
v 1.931594 17.665752 -4.738632
v 1.931594 2.321335 -4.738632
v 1.931594 17.665752 -1.921360
v 1.931594 2.321335 -1.921360
v -2.126507 17.665752 -4.738632
v -2.126507 2.321335 -4.738632
v -2.126507 17.665752 -1.921360
v -2.126507 2.321335 -1.921360
v 3.968719 13.815791 3.185072
v 3.968719 7.503093 3.185072
v 3.968719 13.815791 7.490898
v 3.968719 7.503093 7.490898
v -2.233549 13.815791 3.185072
v -2.233549 7.503093 3.185072
v -2.233549 13.815791 7.490898
v -2.233549 7.503093 7.490898
v 3.476597 14.417455 -5.279400
v 3.476597 11.549369 -5.279400
v 3.476597 14.417455 5.763503
v 3.476597 11.549369 5.763503
v -1.327070 14.417455 -5.279400
v -1.327070 11.549369 -5.279400
v -1.327070 14.417455 5.763503
v -1.327070 11.549369 5.763503
v 2.691790 17.494797 -2.899903
v 2.691790 11.848525 -2.899903
v 2.691790 17.494797 6.541892
v 2.691790 11.848525 6.541892
v -1.438635 17.494797 -2.899903
v -1.438635 11.848525 -2.899903
v -1.438635 17.494797 6.541892
v -1.438635 11.848525 6.541892
v 1.340033 19.609280 -2.779497
v 1.340033 14.415277 -2.779497
v 1.340033 19.609280 2.696717
v 1.340033 14.415277 2.696717
v -2.359696 19.609280 -2.779497
v -2.359696 14.415277 -2.779497
v -2.359696 19.609280 2.696717
v -2.359696 14.415277 2.696717
v 2.634668 19.013718 -1.658687
v 2.634668 17.117615 -1.658687
v 2.634668 19.013718 7.817505
v 2.634668 17.117615 7.817505
v -1.919455 19.013718 -1.658687
v -1.919455 17.117615 -1.658687
v -1.919455 19.013718 7.817505
v -1.919455 17.117615 7.817505
v 4.078792 22.639717 -3.840342
v 4.078792 16.708614 -3.840342
v 4.078792 22.639717 6.902219
v 4.078792 16.708614 6.902219
v -1.083927 22.639717 -3.840342
v -1.083927 16.708614 -3.840342
v -1.083927 22.639717 6.902219
v -1.083927 16.708614 6.902219
v 2.108561 23.290314 -4.092770
v 2.108561 18.331100 -4.092770
v 2.108561 23.290314 -0.710142
v 2.108561 18.331100 -0.710142
v -2.763900 23.290314 -4.092770
v -2.763900 18.331100 -4.092770
v -2.763900 23.290314 -0.710142
v -2.763900 18.331100 -0.710142
v 10.532382 26.445488 -1.960489
v 10.532382 21.486275 -1.960489
v 10.532382 26.445488 1.422139
v 10.532382 21.486275 1.422139
v -1.202037 26.445488 -1.960489
v -1.202037 21.486275 -1.960489
v -1.202037 26.445488 1.422139
v -1.202037 21.486275 1.422139
v 11.638206 25.544371 -5.350281
v 11.638206 20.585157 -5.350281
v 11.638206 25.544371 -1.967654
v 11.638206 20.585157 -1.967654
v -2.111079 25.544371 -5.350281
v -2.111079 20.585157 -5.350281
v -2.111079 25.544371 -1.967654
v -2.111079 20.585157 -1.967654
v 5.744671 26.003542 -3.198444
v 5.744671 21.615826 -3.198444
v 5.744671 26.003542 9.357263
v 5.744671 21.615826 9.357263
v -0.289423 26.003542 -3.198444
v -0.289423 21.615826 -3.198444
v -0.289423 26.003542 9.357263
v -0.289423 21.615826 9.357263
v 11.840456 27.076206 -0.055178
v 11.840456 22.116993 -0.055178
v 11.840456 27.076206 7.414342
v 11.840456 22.116993 7.414342
v -0.873578 27.076206 -0.055178
v -0.873578 22.116993 -0.055178
v -0.873578 27.076206 7.414342
v -0.873578 22.116993 7.414342
vn -0.0000 1.0000 -0.0000
vn -0.0000 -0.0000 1.0000
vn -1.0000 -0.0000 -0.0000
vn -0.0000 -1.0000 -0.0000
vn 1.0000 -0.0000 -0.0000
vn -0.0000 -0.0000 -1.0000
vt 0.625000 0.500000
vt 0.875000 0.500000
vt 0.875000 0.750000
vt 0.625000 0.750000
vt 0.375000 0.750000
vt 0.625000 1.000000
vt 0.375000 1.000000
vt 0.375000 0.000000
vt 0.625000 0.000000
vt 0.625000 0.250000
vt 0.375000 0.250000
vt 0.125000 0.500000
vt 0.375000 0.500000
vt 0.125000 0.750000
s 0
usemtl Material.021
f 1/1/1 5/2/1 7/3/1 3/4/1
f 4/5/2 3/4/2 7/6/2 8/7/2
f 8/8/3 7/9/3 5/10/3 6/11/3
f 6/12/4 2/13/4 4/5/4 8/14/4
f 2/13/5 1/1/5 3/4/5 4/5/5
f 6/11/6 5/10/6 1/1/6 2/13/6
usemtl Material.001
f 9/1/1 13/2/1 15/3/1 11/4/1
f 12/5/2 11/4/2 15/6/2 16/7/2
f 16/8/3 15/9/3 13/10/3 14/11/3
f 14/12/4 10/13/4 12/5/4 16/14/4
f 10/13/5 9/1/5 11/4/5 12/5/5
f 14/11/6 13/10/6 9/1/6 10/13/6
usemtl Material.002
f 17/1/1 21/2/1 23/3/1 19/4/1
f 20/5/2 19/4/2 23/6/2 24/7/2
f 24/8/3 23/9/3 21/10/3 22/11/3
f 22/12/4 18/13/4 20/5/4 24/14/4
f 18/13/5 17/1/5 19/4/5 20/5/5
f 22/11/6 21/10/6 17/1/6 18/13/6
usemtl Material.004
f 25/1/1 29/2/1 31/3/1 27/4/1
f 28/5/2 27/4/2 31/6/2 32/7/2
f 32/8/3 31/9/3 29/10/3 30/11/3
f 30/12/4 26/13/4 28/5/4 32/14/4
f 26/13/5 25/1/5 27/4/5 28/5/5
f 30/11/6 29/10/6 25/1/6 26/13/6
usemtl Material.006
f 33/1/1 37/2/1 39/3/1 35/4/1
f 36/5/2 35/4/2 39/6/2 40/7/2
f 40/8/3 39/9/3 37/10/3 38/11/3
f 38/12/4 34/13/4 36/5/4 40/14/4
f 34/13/5 33/1/5 35/4/5 36/5/5
f 38/11/6 37/10/6 33/1/6 34/13/6
usemtl Material.007
f 41/1/1 45/2/1 47/3/1 43/4/1
f 44/5/2 43/4/2 47/6/2 48/7/2
f 48/8/3 47/9/3 45/10/3 46/11/3
f 46/12/4 42/13/4 44/5/4 48/14/4
f 42/13/5 41/1/5 43/4/5 44/5/5
f 46/11/6 45/10/6 41/1/6 42/13/6
usemtl Material.008
f 49/1/1 53/2/1 55/3/1 51/4/1
f 52/5/2 51/4/2 55/6/2 56/7/2
f 56/8/3 55/9/3 53/10/3 54/11/3
f 54/12/4 50/13/4 52/5/4 56/14/4
f 50/13/5 49/1/5 51/4/5 52/5/5
f 54/11/6 53/10/6 49/1/6 50/13/6
usemtl Material.010
f 57/1/1 61/2/1 63/3/1 59/4/1
f 60/5/2 59/4/2 63/6/2 64/7/2
f 64/8/3 63/9/3 61/10/3 62/11/3
f 62/12/4 58/13/4 60/5/4 64/14/4
f 58/13/5 57/1/5 59/4/5 60/5/5
f 62/11/6 61/10/6 57/1/6 58/13/6
usemtl Material.011
f 65/1/1 69/2/1 71/3/1 67/4/1
f 68/5/2 67/4/2 71/6/2 72/7/2
f 72/8/3 71/9/3 69/10/3 70/11/3
f 70/12/4 66/13/4 68/5/4 72/14/4
f 66/13/5 65/1/5 67/4/5 68/5/5
f 70/11/6 69/10/6 65/1/6 66/13/6
usemtl Material.012
f 73/1/1 77/2/1 79/3/1 75/4/1
f 76/5/2 75/4/2 79/6/2 80/7/2
f 80/8/3 79/9/3 77/10/3 78/11/3
f 78/12/4 74/13/4 76/5/4 80/14/4
f 74/13/5 73/1/5 75/4/5 76/5/5
f 78/11/6 77/10/6 73/1/6 74/13/6
usemtl Material.013
f 81/1/1 85/2/1 87/3/1 83/4/1
f 84/5/2 83/4/2 87/6/2 88/7/2
f 88/8/3 87/9/3 85/10/3 86/11/3
f 86/12/4 82/13/4 84/5/4 88/14/4
f 82/13/5 81/1/5 83/4/5 84/5/5
f 86/11/6 85/10/6 81/1/6 82/13/6
usemtl Material.015
f 89/1/1 93/2/1 95/3/1 91/4/1
f 92/5/2 91/4/2 95/6/2 96/7/2
f 96/8/3 95/9/3 93/10/3 94/11/3
f 94/12/4 90/13/4 92/5/4 96/14/4
f 90/13/5 89/1/5 91/4/5 92/5/5
f 94/11/6 93/10/6 89/1/6 90/13/6
usemtl Material.016
f 97/1/1 101/2/1 103/3/1 99/4/1
f 100/5/2 99/4/2 103/6/2 104/7/2
f 104/8/3 103/9/3 101/10/3 102/11/3
f 102/12/4 98/13/4 100/5/4 104/14/4
f 98/13/5 97/1/5 99/4/5 100/5/5
f 102/11/6 101/10/6 97/1/6 98/13/6
usemtl Material.017
f 105/1/1 109/2/1 111/3/1 107/4/1
f 108/5/2 107/4/2 111/6/2 112/7/2
f 112/8/3 111/9/3 109/10/3 110/11/3
f 110/12/4 106/13/4 108/5/4 112/14/4
f 106/13/5 105/1/5 107/4/5 108/5/5
f 110/11/6 109/10/6 105/1/6 106/13/6
usemtl Material.018
f 113/1/1 117/2/1 119/3/1 115/4/1
f 116/5/2 115/4/2 119/6/2 120/7/2
f 120/8/3 119/9/3 117/10/3 118/11/3
f 118/12/4 114/13/4 116/5/4 120/14/4
f 114/13/5 113/1/5 115/4/5 116/5/5
f 118/11/6 117/10/6 113/1/6 114/13/6
usemtl Material.019
f 121/1/1 125/2/1 127/3/1 123/4/1
f 124/5/2 123/4/2 127/6/2 128/7/2
f 128/8/3 127/9/3 125/10/3 126/11/3
f 126/12/4 122/13/4 124/5/4 128/14/4
f 122/13/5 121/1/5 123/4/5 124/5/5
f 126/11/6 125/10/6 121/1/6 122/13/6
usemtl Material.020
f 129/1/1 133/2/1 135/3/1 131/4/1
f 132/5/2 131/4/2 135/6/2 136/7/2
f 136/8/3 135/9/3 133/10/3 134/11/3
f 134/12/4 130/13/4 132/5/4 136/14/4
f 130/13/5 129/1/5 131/4/5 132/5/5
f 134/11/6 133/10/6 129/1/6 130/13/6
usemtl Material.022
f 137/1/1 141/2/1 143/3/1 139/4/1
f 140/5/2 139/4/2 143/6/2 144/7/2
f 144/8/3 143/9/3 141/10/3 142/11/3
f 142/12/4 138/13/4 140/5/4 144/14/4
f 138/13/5 137/1/5 139/4/5 140/5/5
f 142/11/6 141/10/6 137/1/6 138/13/6
usemtl Material.023
f 145/1/1 149/2/1 151/3/1 147/4/1
f 148/5/2 147/4/2 151/6/2 152/7/2
f 152/8/3 151/9/3 149/10/3 150/11/3
f 150/12/4 146/13/4 148/5/4 152/14/4
f 146/13/5 145/1/5 147/4/5 148/5/5
f 150/11/6 149/10/6 145/1/6 146/13/6
usemtl Material.024
f 153/1/1 157/2/1 159/3/1 155/4/1
f 156/5/2 155/4/2 159/6/2 160/7/2
f 160/8/3 159/9/3 157/10/3 158/11/3
f 158/12/4 154/13/4 156/5/4 160/14/4
f 154/13/5 153/1/5 155/4/5 156/5/5
f 158/11/6 157/10/6 153/1/6 154/13/6
usemtl Material.025
f 161/1/1 165/2/1 167/3/1 163/4/1
f 164/5/2 163/4/2 167/6/2 168/7/2
f 168/8/3 167/9/3 165/10/3 166/11/3
f 166/12/4 162/13/4 164/5/4 168/14/4
f 162/13/5 161/1/5 163/4/5 164/5/5
f 166/11/6 165/10/6 161/1/6 162/13/6
